<svg xmlns="http://www.w3.org/2000/svg" viewBox="0 0 841.89 595.28"><title>Leuchtturmrakete</title><path d="M431.13,334.4l4.28-6.81,1.23,2.68c0,1.81-.66,4.06.17,5.35,1.57,2.46,15.41,3.54,17.82,1.75a3,3,0,0,0,.94-1.73c1-5.16,2.24-10.29,2.71-15.5,0.3-3.33-1.88-1.2-3.12-.73l5.72-11.73,0.74-.85-0.68,1a30.81,30.81,0,0,0-.25-5c-0.21-1-1.12-1.88-1.72-2.82-0.9-1.76-1.54-4.51-4-1.23-1.36,1.84-2.56,3.78-3.83,5.68l-10,8.85-0.66-1.1a9.19,9.19,0,0,1,.43-2.07c1.07-2.33,5.35-3.2,3.11-7.06s-3.31-8.61-9.28-8.62c-3.91,0-7.82-.5-11.74-0.52-6.28,0-12.56-3.25-18.77-5.34-0.59-.2-0.5-2-1-2.92a16.25,16.25,0,0,0-3.27-4.46c-1.13-.92-2.91-1-4.4-1.5l4.22-1a1.41,1.41,0,0,0,.66-0.16,6,6,0,0,0,.51-1.67c-4.86-2.4,5.35-7-1.63-9.59-4.88-1.8-5-5.61-.32-8.24s6.73-5.57,5.37-11c-0.4-1.61.77-3.61,1.2-5.43,1.39-5.82,3-11.58,1.7-17.71-0.3-1.44,0-4,.91-4.53,4.68-2.84,4-7.91,5.62-12l0.63-.32a16.41,16.41,0,0,1,.5,4.06c-0.3,2.42.39,3.25,2.94,3.67,12.26,2,24.58,3.85,36.68,6.58,10.65,2.4,10.37,2.85,12.54-8.05,2.94-14.71,6.19-29.36,9.28-44,2.07-9.84,1.72-10.79-7.8-14.19a64.44,64.44,0,0,0-14-3.25c-7.78-.92-15.66-1-23.45-1.88-4.65-.51-5.67,1.84-6.15,5.66-0.57,4.52-1.49,9-2.45,13.48a21.08,21.08,0,0,1-1.85,4.13,39.08,39.08,0,0,1,0-4.08c0.18-1.91.59-3.8,0.82-5.71,1-8.4,1-8.39-6.86-11.67-2.33-1-3.7-2.18-3.54-5.33,0.28-5.41-.4-10.84,5.7-13.82,0.41-.2-2.71-2.76.83-3.12,2-.21,4.07-0.63,6.1-1a30.4,30.4,0,0,1-4.7-3.37c-0.88-.91-1.85-2.77-1.48-3.67,1.9-4.57-1.28-4.54-4.1-5.06-4-.74-8-1.56-12-2.34l1-5.68L405,95.2l0.25-1.42c2.17,0.28,4.38.42,6.51,0.86,4.12,0.86,8.17,2.13,12.32,2.7,1,0.14,3.19-1.74,3.24-2.76,0.14-2.89-.88-5.84-0.83-8.75,0.07-3.92-.52-10.29,1.38-11.25,4.42-2.23,5.13-5.38,6.22-9.21,0.43-1.53,2.28-2.65,3.48-4,0.38,1.64,1.08,3.28,1.07,4.92,0,4.41,1.35,6.14,5.64,6.38,5.48,0.31,11,.23,16.43,1,5.07,0.7,7-1.51,7.68-6,0.54-3.56,1.36-7.07,2.06-10.6l2.84,0.51C472.56,61.81,472,66.1,471,70.28s0.23,6,4.52,7A42.59,42.59,0,0,1,496.84,88.5c4.33,4.28,4.18,5.93-1.58,7.72-5.28,1.64-4.29,5.6-4.54,9.22,0,0.4,1.47.82,2.14,1.39,2.07,1.73,4.07,3.54,6.1,5.32-0.91-.17-1.82-0.39-2.74-0.5-0.75-.1-1.52-0.08-2.29-0.11a7.3,7.3,0,0,0,2.3,1.08,8.51,8.51,0,0,0,2.62-.61c2.33,2,3.94,3.85,2,7.3-0.88,1.54.1,4-.25,6-0.26,1.47-1.3,2.81-2,4.2-0.62-.44-1.21-1.22-1.85-1.27a50.65,50.65,0,0,0-5.3.08l1.93-1.71-0.91-.46-0.9,2.31c-0.63.33-1.8,0.67-1.79,1,0.07,3.76.18,7.53,0.61,11.27,0.14,1.19,1.23,2.28,1.88,3.41,0.87-1.09,2.07-2.05,2.55-3.3,1.46-3.76,2.64-7.63,3.94-11.46-1.85,10.67-3.39,21.36-3.12,32.25,0,0.88-1.66,2.18-2.81,2.64a29.42,29.42,0,0,1-6.84,1.84c-7.17,1-7.13.93-8.48,8.34-3.06,16.77-6.63,33.47-9.06,50.33-1,6.74-1.25,13.55-3.5,20.07-0.95,2.74,0,4.15,3,3.57,1.42-.26,2.94-1,4.21-0.69,1.64,0.4,3.09,1.63,4.61,2.51-0.95,1.45-1.62,3.24-2.91,4.26s-3.15,1.08-4.69,1.73c-2.12.89-4.18,1.94-6.26,2.92,1.76,2.37,3.09,5.3,5.36,7,5.15,3.87,5.26,5.14-.5,8.61-3,1.82-4.25,8.78-1.92,11.45,0.13,0.15,1.28-.78,2-0.9,1.5-.24,3-0.26,4.54-0.38a26.35,26.35,0,0,1-.8,4.19c-0.46,1.29-1.54,2.37-2,3.67-1.43,4.4-2.71,8.85-4,13.29s-2.92,8.93-3.79,13.51c-3.24,17-6.27,34-9.27,51.07a13.87,13.87,0,0,0,.27,5.54c5,20.34,2.07,40-5.22,59.21a58.8,58.8,0,0,1-3.94,9.18c-1.19,2-.93,6.21-5.46,4.86-0.22-.07-1.19,2.15-1.72,3.35-3.27,7.42-6.19,15-9.91,22.19-1.5,2.89-4.72,4.88-7.12,7.32-0.63.64-1.53,1.32-1.66,2.09-1.56,9.26-9,14.88-13.69,22.19-7.82,12.28-16.27,24.16-24.42,36.23-0.66,1-1,2.21-1.63,3.17a5.42,5.42,0,0,1-1.81,1.09,7.29,7.29,0,0,1-.76-1.87c-0.43-4-.51-8.13-1.21-12.11-2.56-14.63-5.14-29.27-8-43.84-2.49-12.48-5.38-24.89-8.19-37.31-1.62-7.14-4.51-14.19-4.92-21.38-1.11-19.72-.71-39.42,10.12-57.11,2.46-4,5.14-7.9,7.87-11.74,2.27-3.19,4.58-6.13,2.24-10.45-0.61-1.13.22-3.13,0.59-4.68s1.08-3.15,1.53-4.75c1-3.64,1.88-7.33,3.07-10.92s6.77-2.17,8.15-6.53c0.42-1.31,4.37-.91,4.5,2,0.18,3.89,1.88,4.18,5.12,3.62,2-.35,4.28.64,6.39,0.48a9.51,9.51,0,0,0,4.62-1.73c3.8-2.73,4.85-2.4,6,2.17a6,6,0,0,0,1.46,1.82,13.73,13.73,0,0,0,2.18-2.26,18.65,18.65,0,0,0,1.26-3.27,26.61,26.61,0,0,1,.38,3.63c-0.12,4.6,4,4,5.5,3.08,2.88-1.79,4.81-.08,7.13.38l0.29,1.19,0.69-.37Zm59.81-187.1-1-1.36-0.64.57,1.75,0.67a11.47,11.47,0,0,0,.76,1,0.89,0.89,0,0,0,.46,0ZM391.4,498.79l0.82-.66-0.71.83-1.63-.26c0.44-8.33,9.33-11.09,12-18.06,0.65-1.73,3-2.8,3.74-4.53,6.61-14.66,13-29.41,19.59-44.09a3.23,3.23,0,0,1,2.38-1.71c0.85,0,1.79,1,2.41,1.85,0.37,0.48.16,1.39,0.31,2.08,0.29,1.27.66,2.52,1,3.78a18.15,18.15,0,0,0,1.79-3.84c1.57-7.5,2.94-15,4.49-22.54a18.43,18.43,0,0,1,1.66-3.7A25.63,25.63,0,0,1,442,411a17,17,0,0,1,1.33,3.32,5.57,5.57,0,0,0-.6.38,2.49,2.49,0,0,0-.33.41l0.84-.92c1.85-6,5.21-12.06,5.06-18-0.11-4.47-1.29-8.86-.31-13.6,0.49-2.37-.47-6.84-2-7.51a63.58,63.58,0,0,0-16.64-4.69c-15.39-2.1-30.75-4.09-45.5-9.35-1.82-.65-5.33-0.31-6.24.91-3.71,5-8.62,9.49-8.77,16.52a67.88,67.88,0,0,1-1.32,9.22,19.34,19.34,0,0,1-.67,2.34,14.58,14.58,0,0,1,2-1.77,24.63,24.63,0,0,1,2.93-1.34l-0.27,2.86c-4.62,6-2.16,12.78-2.19,19.28a4.67,4.67,0,0,0,.62,1.56c0.25-.66.54-1.31,0.75-2,0.27-.91.47-1.84,0.7-2.77,1.24,10.33,2.59,20.65,3.64,31,0.31,3-.26,6.12-0.42,9.18l-0.93,1.82,0.83-1.95c1.09,3,4,6.1-.12,9.06-0.07-.2-0.12-0.4-0.21-0.59s-0.2-.37-0.3-0.55l0.63,1.05a3.87,3.87,0,0,0-.24,1.33c4.43,2.54,3.32,7.53,5,11.28,0.19,0.44-.35,1.2-0.55,1.81a4.42,4.42,0,0,1-1.72-.85,21.24,21.24,0,0,1-1.58-3l-0.24-2.48a1.1,1.1,0,0,0-.31.48c0.19,0.65.45,1.28,0.69,1.92,0.58,12,1.93,23.71,8.82,34l-0.11-.13,2.57,5.89a35.74,35.74,0,0,1,1.31-4.81c0.3-.73,1.3-1.17,2-1.74l0.79,1.45Zm24.81-382.87c3.94-.07,8.21-0.07,12.47-0.32,0.45,0,.81-1.5,1.21-2.31-3.78-.85-9.2-3.66-11-2.15-3.8,3.2-6.66.74-9.89,0.76-0.92,0-1.84.13-2.76,0.2a8.61,8.61,0,0,0,2,1.45C410.75,114.39,413.26,115.05,416.22,115.92Zm4.4,36.18c1.05-.69,2.57-1.65,4-2.66a19.44,19.44,0,0,0,1.6-1.35c-1.53-.21-3.06-0.44-4.59-0.61a9.59,9.59,0,0,0-2.12-.08c-1.8.2-3.59,0.48-5.39,0.72l4.8,3Zm-4.29-50.26c-4.22-.7-6.37,1.09-5.47,4.28,0.25,0.9,1.93,1.84,3,2s2.61-.63,3.92-1a29.71,29.71,0,0,1-3-1.5,12.83,12.83,0,0,1-1.82-1.7,13.48,13.48,0,0,1,2.32-1,16.21,16.21,0,0,1,2.7-.21Zm69.9,57.85c-2.63-.12-5.66-1.91-5.32,2.18,0,0.59,3.5,1.23,5.37,1.22,1.05,0,2.1-1.27,3.15-2Zm-76.8-57.77-0.37-3.64c-0.77,1.52-1.57,3-2.3,4.57a2.4,2.4,0,0,0-.22,1.37c0.21,1.12.54,2.21,0.83,3.31,0.53-1,1.09-1.89,1.56-2.87A17,17,0,0,0,409.43,101.93Zm79,36-0.67-4.46c-0.8,1.23-2,2.38-2.28,3.72s0.42,2.74.69,4.13Zm-4.87-8,3.6-3c-0.47-.32-1.18-1-1.37-0.9a15.7,15.7,0,0,0-2.75,2.29A4.36,4.36,0,0,0,483.6,129.92ZM447,145.26l4.41,0.11A21.45,21.45,0,0,0,448,144a29.85,29.85,0,0,0-4.16-.3Zm7.58-42.56,3.32-.15a7,7,0,0,0-1.76-.9,34.08,34.08,0,0,0-3.5-.33Zm-5.7,199.4c0.87-1,1.64-1.48,1.8-2.14a1.89,1.89,0,0,0-1-1.57,4.54,4.54,0,0,0-2,.57ZM415.64,100l2.92-.47a16.08,16.08,0,0,0-2.63-.83,15.51,15.51,0,0,0-2.72.06Zm76.46,55.74a41.34,41.34,0,0,0-3.76-2.14,4.16,4.16,0,0,0-1.13,1.09,18.09,18.09,0,0,0,2.61,2.13C490.11,157,490.87,156.38,492.1,155.77Zm-34.58,69-2,1a2.61,2.61,0,0,0,1.09.66,20.73,20.73,0,0,0,2.72-.49Zm-36.68-82.51c-0.84-.84-1.24-1.52-1.8-1.7-0.32-.1-0.91.6-1.37,0.95a4.73,4.73,0,0,0,1.32,1.25C419.38,143,420,142.57,420.84,142.31Zm39-57.07,1.6-1.2a5.15,5.15,0,0,0-1.75-.82,3.48,3.48,0,0,0-1.46.81Zm19.45,58a3.42,3.42,0,0,0-.55-1.36,14.61,14.61,0,0,0-2.42-.08,1.93,1.93,0,0,0,.37.93A23.14,23.14,0,0,0,479.28,143.23ZM461.65,292.65a10.15,10.15,0,0,0-1.45-1,2,2,0,0,0-.68.91,7.17,7.17,0,0,0,1.21,1.26Zm29.17-141.9a13,13,0,0,0-1.63-1.38,2.26,2.26,0,0,0-1.09,0,17.05,17.05,0,0,0,1.63,1.66A2.44,2.44,0,0,0,490.82,150.75ZM409.49,251.26l-1.74,1.44a2.64,2.64,0,0,0,.82.77,21.88,21.88,0,0,0,2.36-1.19Zm14.22,114.53-0.17-1.34a2.86,2.86,0,0,0-1.24.27,4,4,0,0,0,.16,1.5Zm33.06-220.08-1.23.28a3.38,3.38,0,0,0,1,.64,3.43,3.43,0,0,0,1.21-.24Zm37.36-26.41a3.79,3.79,0,0,0,.46,1.24,2.07,2.07,0,0,0,1-.13,2.33,2.33,0,0,0-.25-1.21A2.31,2.31,0,0,0,494.13,119.3ZM425.79,107a7.73,7.73,0,0,0-1.2-.45,1.24,1.24,0,0,0-.57.3,2.88,2.88,0,0,0,.61.83A4.64,4.64,0,0,0,425.79,107Zm36.75,120.91a3.09,3.09,0,0,0,.55,1.18,2.14,2.14,0,0,0,1.12,0,2.27,2.27,0,0,0-.36-1.15A2.78,2.78,0,0,0,462.53,227.86ZM372.62,442.8l0.41,0.12-0.06-.6ZM439.83,445l0.34-.44-0.35-.14V445Zm-40-83.46-0.63.16,0.55,0.32Zm52.76-10.06-0.19-.61a1.3,1.3,0,0,0-.47.39,2.86,2.86,0,0,0,.38.76Zm-34.17-67.12-0.57-.3-0.2.75a2.32,2.32,0,0,0,.65,0A0.87,0.87,0,0,0,418.41,284.35ZM404,277.49a1.22,1.22,0,0,0-.51.34,6.62,6.62,0,0,0,.17,1.17,1.2,1.2,0,0,0,.5-0.35A6.22,6.22,0,0,0,404,277.49Zm39.17-54.37,0.52,0.27-0.25-.64Zm20.41-72.6a2.12,2.12,0,0,0,.57.26,1,1,0,0,0,.28-0.35,2.13,2.13,0,0,0-.57-0.26A0.94,0.94,0,0,0,463.58,150.52Zm-36.43-47.31,0.57-.2a1.37,1.37,0,0,0-.36-0.45,3.18,3.18,0,0,0-.73.38ZM426.63,100a0.94,0.94,0,0,0-.06-0.49,2.11,2.11,0,0,0-.64-0.23l0,0.84Zm5.61-.33,0.62-.23a1.44,1.44,0,0,0-.4-0.48,3.25,3.25,0,0,0-.78.42ZM491.64,91a1,1,0,0,0-.3-0.45,1.38,1.38,0,0,0-.61.09,1.29,1.29,0,0,0,.38.46A1.07,1.07,0,0,0,491.64,91Z" fill="#272726"/><path d="M391.85,274.64c-1.06,7.33-1.05,7.32,6.47,11.33,0.62,0.33,1.22.7,1.83,1a22.56,22.56,0,0,1-2.32.68c-0.86.16-1.76,0.18-2.64,0.26l2.1,0.49c1.17,0.27,2.35.49,3.51,0.81a16.9,16.9,0,0,1,2,.81,8,8,0,0,0-1.86,1.33c-1.34,1.71-3.2,3.37-3.68,5.34-1.54,6.29-2.51,12.71-3.78,19.07a27,27,0,0,1-1.48,4.78,4.71,4.71,0,0,1-1.53,1.31c-0.25-.73-0.85-1.55-0.71-2.19,1.75-8,3.61-15.89,5.44-23.82,0.72-3.11,1.84-6.13-3.39-6.48-1.83-.13-3.7-2-5.21-3.44a5.23,5.23,0,0,1-1.25-3.49c0-2.32.64-4.64,0.62-7,0-6.35-.12-6.35,6.57-4.9a9.47,9.47,0,0,1-.12,1.31l0.13-.15-0.54,3Z" fill="#272726"/><path d="M454.64,319.53c0.09,1.21.14,2.43,0.26,3.63,0.22,2.2-.55,4.51-2.86,3.34-4.64-2.35-7.47.67-10.89,2.44a17,17,0,0,1-4,1l2.56-2.8,5-3.42,0.12-1.69-0.08.09,1.81,0.42,4.92-3.52-0.17.09Z" fill="#272726"/><path d="M441.2,313.28c-5.4,2.9-10.79,5.84-16.23,8.67a8,8,0,0,1-2.61.36c0.53-.84.86-2.08,1.62-2.45,5.47-2.66,11-5.14,16.57-7.67Z" fill="#272726"/><path d="M392.38,271.91a4.58,4.58,0,0,1,.65-0.29l5.41-1.46a4.59,4.59,0,0,1-.14,1.74c-1.06,2-1.81,4.61-5,2.94a4.43,4.43,0,0,0-1.4-.2l0.12,0.15,0.54-3Z" fill="#272726"/><path d="M413.85,208.38c0.36-3.37.7-6.73,1.12-10.09a5.6,5.6,0,0,1,1.21-.09l-1.69,9.86Z" fill="#272726"/><path d="M419.85,187.58l-2.68,6.52c0.06-2.36-.21-4.79.27-7.06a69.9,69.9,0,0,1,2.79-8.24Z" fill="#272726"/><path d="M455.93,313l-4.56,6.13,0.17-.09-3-.54,0.1,0.11,6.68-6.44Z" fill="#272726"/><path d="M425.34,329c-1.59,1-2.65,1.82-3.81,2.42a4.67,4.67,0,0,1-1.18-1.11c1.08-.8,2.12-1.64,3.26-2.33C423.8,327.88,424.41,328.45,425.34,329Z" fill="#272726"/><path d="M446.63,322.51l-1.81-.42,3.84-3.53-0.1-.11Z" fill="#272726"/><path d="M439.81,327.29l-3-.58,2.65-2Z" fill="#272726"/><path d="M455.33,312.13l2.38-1.65L455.93,313Z" fill="#272726"/><path d="M451.08,304.29l3.22-.91C453.89,306,452.81,306.29,451.08,304.29Z" fill="#272726"/><path d="M454.21,303.45l3.58-2.82Z" fill="#272726"/><path d="M400,283.87a3.17,3.17,0,0,1-1.25.69,9.91,9.91,0,0,1-1.85-.79,2.23,2.23,0,0,1,1-.58A12,12,0,0,1,400,283.87Z" fill="#272726"/><path d="M444.89,322l-0.12,1.69-1.62-1Z" fill="#272726"/><path d="M371.44,406l-0.09-16.34C375.13,395.08,372.26,400.54,371.44,406Z" fill="#272726"/><path d="M384.29,499.37c-0.43-2.26-.91-4.52-1.24-6.8a5,5,0,0,1,.46-1.81,2.82,2.82,0,0,1,.86,1c0.51,2.51,3,5.1-.2,7.51Z" fill="#272726"/><path d="M381.23,476.76l-1.66.6a4.28,4.28,0,0,1-.38-1.81c0.1-.37.89-0.56,1.37-0.83Z" fill="#272726"/></svg>